<?xml version="1.0" encoding="UTF-8"?>
<svg xmlns="http://www.w3.org/2000/svg" height="246" width="246" class="pyqrcode"><path transform="scale(6)" stroke="#000" class="pyqrline" d="M4 4.5h7m2 0h2m3 0h2m1 0h5m1 0h2m1 0h7m-33 1h1m5 0h1m2 0h2m1 0h5m1 0h1m1 0h2m1 0h1m2 0h1m5 0h1m-33 1h1m1 0h3m1 0h1m4 0h1m3 0h1m2 0h2m2 0h2m2 0h1m1 0h3m1 0h1m-33 1h1m1 0h3m1 0h1m2 0h1m2 0h2m2 0h1m1 0h1m1 0h1m2 0h2m1 0h1m1 0h3m1 0h1m-33 1h1m1 0h3m1 0h1m1 0h2m1 0h2m4 0h1m2 0h1m3 0h1m1 0h1m1 0h3m1 0h1m-33 1h1m5 0h1m2 0h2m2 0h3m1 0h1m2 0h1m3 0h1m1 0h1m5 0h1m-33 1h7m1 0h1m1 0h1m1 0h1m1 0h1m1 0h1m1 0h1m1 0h1m1 0h1m1 0h1m1 0h7m-25 1h1m1 0h1m1 0h6m1 0h1m2 0h3m-23 1h2m2 0h4m2 0h3m1 0h1m2 0h1m1 0h1m3 0h2m1 0h1m-29 1h4m3 0h2m1 0h1m1 0h1m2 0h1m1 0h3m3 0h1m1 0h2m2 0h1m1 0h2m-31 1h1m1 0h1m1 0h5m3 0h1m2 0h1m4 0h2m1 0h2m3 0h3m-32 1h3m1 0h1m2 0h2m3 0h1m1 0h2m1 0h2m3 0h3m1 0h3m1 0h1m-31 1h3m1 0h2m1 0h2m1 0h2m3 0h1m1 0h3m1 0h1m2 0h1m1 0h2m2 0h1m-32 1h1m1 0h4m2 0h3m1 0h1m2 0h1m1 0h1m1 0h1m1 0h2m1 0h2m1 0h1m2 0h1m-31 1h1m1 0h6m1 0h1m1 0h1m1 0h1m1 0h2m1 0h1m2 0h1m2 0h2m-26 1h6m1 0h2m1 0h1m1 0h2m1 0h1m2 0h5m3 0h5m1 0h1m-33 1h2m1 0h1m1 0h2m1 0h1m1 0h1m2 0h4m3 0h2m1 0h6m3 0h1m-33 1h1m1 0h4m1 0h1m1 0h4m2 0h3m3 0h3m1 0h4m1 0h3m-28 1h7m4 0h1m2 0h2m1 0h1m2 0h1m2 0h1m1 0h2m-30 1h3m2 0h1m1 0h3m5 0h2m1 0h1m4 0h4m2 0h2m-32 1h1m2 0h1m1 0h2m1 0h1m2 0h2m1 0h3m3 0h1m5 0h1m1 0h2m-31 1h1m2 0h2m3 0h3m1 0h2m1 0h1m3 0h2m2 0h1m1 0h2m2 0h2m1 0h1m-28 1h2m1 0h1m3 0h1m1 0h3m2 0h5m2 0h2m2 0h3m-32 1h5m1 0h1m1 0h1m3 0h1m3 0h3m2 0h2m1 0h1m3 0h1m2 0h1m-33 1h1m5 0h1m1 0h3m1 0h1m1 0h1m1 0h1m1 0h3m1 0h1m1 0h5m-21 1h1m1 0h1m1 0h1m2 0h1m2 0h2m1 0h1m2 0h1m3 0h1m1 0h2m-32 1h7m1 0h1m3 0h2m2 0h1m2 0h2m1 0h3m1 0h1m1 0h2m-30 1h1m5 0h1m7 0h4m2 0h5m3 0h1m1 0h3m-33 1h1m1 0h3m1 0h1m7 0h1m1 0h3m4 0h9m-32 1h1m1 0h3m1 0h1m1 0h2m3 0h2m3 0h3m1 0h2m3 0h1m1 0h4m-33 1h1m1 0h3m1 0h1m1 0h1m1 0h1m1 0h1m3 0h2m2 0h1m1 0h1m1 0h3m2 0h1m-30 1h1m5 0h1m2 0h1m2 0h2m2 0h2m1 0h2m2 0h4m5 0h1m-33 1h7m2 0h2m1 0h1m1 0h1m1 0h1m4 0h1m1 0h1m1 0h1m1 0h2m1 0h1"/></svg>
